<svg xmlns="http://www.w3.org/2000/svg" viewBox="0 0 512 512" width="512" height="512">
  <defs>
    <linearGradient id="bgGrad512" x1="0%" y1="0%" x2="100%" y2="100%">
      <stop offset="0%" stop-color="#1e3a8a" />
      <stop offset="50%" stop-color="#2563eb" />
      <stop offset="100%" stop-color="#0284c7" />
    </linearGradient>
    <linearGradient id="accentGrad512" x1="0%" y1="0%" x2="100%" y2="100%">
      <stop offset="0%" stop-color="#10b981" />
      <stop offset="100%" stop-color="#059669" />
    </linearGradient>
  </defs>
  <!-- Background with rounded corners -->
  <rect width="512" height="512" rx="112" fill="url(#bgGrad512)" />
  
  <!-- Subtle inner border -->
  <rect x="8" y="8" width="496" height="496" rx="104" fill="none" stroke="#ffffff" stroke-width="4" opacity="0.15" />

  <!-- Clipboard / Inspection Board -->
  <rect x="116" y="116" width="280" height="308" rx="36" fill="#ffffff" />
  
  <!-- Clipboard Clip -->
  <rect x="192" y="88" width="128" height="48" rx="18" fill="#0f172a" />
  <circle cx="256" cy="112" r="10" fill="#60a5fa" />

  <!-- Mold / Cavity Grid Graphic inside clipboard -->
  <rect x="148" y="174" width="98" height="64" rx="12" fill="#e0f2fe" />
  <rect x="266" y="174" width="98" height="64" rx="12" fill="#e0f2fe" />
  <rect x="148" y="254" width="98" height="64" rx="12" fill="#e0f2fe" />
  <rect x="266" y="254" width="98" height="64" rx="12" fill="#dcfce7" />

  <!-- Checkmark Badge on bottom right -->
  <circle cx="344" cy="368" r="70" fill="url(#accentGrad512)" stroke="#ffffff" stroke-width="10" />
  <path d="M316 368 L336 388 L374 348" fill="none" stroke="#ffffff" stroke-width="12" stroke-linecap="round" stroke-linejoin="round" />
</svg>
